<?xml version="1.0" encoding="UTF-8"?>
<!-- Created with Inkscape (http://www.inkscape.org/) -->
<svg width="187.94mm" height="187.94mm" version="1.1" viewBox="0 0 187.94 187.94" xmlns="http://www.w3.org/2000/svg">
 <g transform="translate(-13.615 -51.967)" fill-rule="evenodd" stroke="#000">
  <path transform="scale(.26458)" d="m356.17 540.14a407.66 407.66 0 0 0-6.8145-3.7402 407.66 407.66 0 0 0-9.3281-4.8144 407.66 407.66 0 0 0-9.4512-4.5723 407.66 407.66 0 0 0-9.5606-4.3262 407.66 407.66 0 0 0-9.6738-4.0781 407.66 407.66 0 0 0-9.7734-3.8301 407.66 407.66 0 0 0-9.8691-3.5781 407.66 407.66 0 0 0-9.957-3.3203 407.66 407.66 0 0 0-10.043-3.0625 407.66 407.66 0 0 0-10.113-2.8047 407.66 407.66 0 0 0-10.186-2.543 407.66 407.66 0 0 0-10.246-2.2774 407.66 407.66 0 0 0-10.303-2.0156 407.66 407.66 0 0 0-10.352-1.748 407.66 407.66 0 0 0-10.393-1.4824 407.66 407.66 0 0 0-10.426-1.2129 407.66 407.66 0 0 0-10.455-0.94531 407.66 407.66 0 0 0-10.477-0.67578 407.66 407.66 0 0 0-10.486-0.40626 407.66 407.66 0 0 0-10.496-0.13476 407.66 407.66 0 0 0-30.465 1.1406 407.66 407.66 0 0 0-30.295 3.4121 407.66 407.66 0 0 0-29.955 5.668 407.66 407.66 0 0 0-15.092 4.0449v80.902a407.66 407.66 0 0 0 7.666 2.0547 407.66 407.66 0 0 0 29.955 5.668 407.66 407.66 0 0 0 30.295 3.4121 407.66 407.66 0 0 0 30.465 1.1387 407.66 407.66 0 0 0 30.461-1.1387 407.66 407.66 0 0 0 30.295-3.4121 407.66 407.66 0 0 0 29.955-5.668 407.66 407.66 0 0 0 29.447-7.8906 407.66 407.66 0 0 0 28.775-10.068 407.66 407.66 0 0 0 27.941-12.191 407.66 407.66 0 0 0 26.951-14.246 407.66 407.66 0 0 0 2.002-1.2578z"/>
  <path transform="scale(.26458)" d="m51.957 196.91v216.53a494.1 494.1 0 0 1 4.6289-1.1602 494.1 494.1 0 0 1 47.963-7.1152 494.1 494.1 0 0 1 48.432-2.3809 494.1 494.1 0 0 1 16.51 0.27734 494.1 494.1 0 0 1 16.492 0.82617 494.1 494.1 0 0 1 16.455 1.3789 494.1 494.1 0 0 1 16.398 1.9277 494.1 494.1 0 0 1 16.326 2.4727 494.1 494.1 0 0 1 16.234 3.0195 494.1 494.1 0 0 1 16.125 3.5586 494.1 494.1 0 0 1 15.996 4.0957 494.1 494.1 0 0 1 15.852 4.6289 494.1 494.1 0 0 1 15.688 5.1543 494.1 494.1 0 0 1 15.506 5.6777 494.1 494.1 0 0 1 15.309 6.1914 494.1 494.1 0 0 1 15.092 6.6992 494.1 494.1 0 0 1 14.859 7.1992 494.1 494.1 0 0 1 14.611 7.6934 494.1 494.1 0 0 1 14.348 8.1758 494.1 494.1 0 0 1 14.064 8.6523 494.1 494.1 0 0 1 9.3496 6.1895 407.66 407.66 0 0 0 20.977-20.975 407.66 407.66 0 0 0 19.885-23.105 407.66 407.66 0 0 0 18.104-24.529 407.66 407.66 0 0 0 16.221-25.814 407.66 407.66 0 0 0 14.246-26.953 407.66 407.66 0 0 0 12.189-27.941 407.66 407.66 0 0 0 10.07-28.775 407.66 407.66 0 0 0 7.8887-29.447 407.66 407.66 0 0 0 5.668-29.955 407.66 407.66 0 0 0 3.4121-30.293 407.66 407.66 0 0 0 0.82031-21.904z"/>
  <path transform="scale(.26458)" d="m557.98 906.25a407.66 407.66 0 0 0 0-8e-3 407.66 407.66 0 0 0-2e-3 -0.14062 407.66 407.66 0 0 0-2e-3 -0.14258 407.66 407.66 0 0 0-2e-3 -0.14063 407.66 407.66 0 0 0-2e-3 -0.14257 407.66 407.66 0 0 0 0-0.14258 407.66 407.66 0 0 0-2e-3 -0.14063 407.66 407.66 0 0 0-2e-3 -0.14258 407.66 407.66 0 0 0-2e-3 -0.14257 407.66 407.66 0 0 0-2e-3 -0.14063 407.66 407.66 0 0 0-2e-3 -0.14258 407.66 407.66 0 0 0-2e-3 -0.14258 407.66 407.66 0 0 0-2e-3 -0.14062 407.66 407.66 0 0 0-2e-3 -0.14258 407.66 407.66 0 0 0-2e-3 -0.14258 407.66 407.66 0 0 0-2e-3 -0.14062 407.66 407.66 0 0 0-2e-3 -0.14258 407.66 407.66 0 0 0-2e-3 -0.14063 407.66 407.66 0 0 0-4e-3 -0.14257 407.66 407.66 0 0 0-2e-3 -0.14258 407.66 407.66 0 0 0-2e-3 -0.14063 407.66 407.66 0 0 0-2e-3 -0.14257 407.66 407.66 0 0 0-2e-3 -0.14258 407.66 407.66 0 0 0-4e-3 -0.14063 407.66 407.66 0 0 0-2e-3 -0.14258 407.66 407.66 0 0 0-2e-3 -0.14257 407.66 407.66 0 0 0-4e-3 -0.14063 407.66 407.66 0 0 0-2e-3 -0.14258 407.66 407.66 0 0 0-4e-3 -0.14062 407.66 407.66 0 0 0-2e-3 -0.14258 407.66 407.66 0 0 0-4e-3 -0.14258 407.66 407.66 0 0 0-2e-3 -0.14062 407.66 407.66 0 0 0-4e-3 -0.14258 407.66 407.66 0 0 0-2e-3 -0.14258 407.66 407.66 0 0 0-4e-3 -0.14062 407.66 407.66 0 0 0-2e-3 -0.14258 407.66 407.66 0 0 0-4e-3 -0.14258 407.66 407.66 0 0 0-2e-3 -0.14063 407.66 407.66 0 0 0-4e-3 -0.14257 407.66 407.66 0 0 0-4e-3 -0.14063 407.66 407.66 0 0 0-4e-3 -0.14258 407.66 407.66 0 0 0-2e-3 -0.14257 407.66 407.66 0 0 0-4e-3 -0.14063 407.66 407.66 0 0 0-4e-3 -0.14258 407.66 407.66 0 0 0-4e-3 -0.14258 407.66 407.66 0 0 0-4e-3 -0.14062 407.66 407.66 0 0 0-0.40625-10.488 407.66 407.66 0 0 0-0.67383-10.477 407.66 407.66 0 0 0-0.94531-10.453 407.66 407.66 0 0 0-1.2129-10.428 407.66 407.66 0 0 0-1.4824-10.393 407.66 407.66 0 0 0-1.748-10.352 407.66 407.66 0 0 0-2.0156-10.301 407.66 407.66 0 0 0-2.2773-10.248 407.66 407.66 0 0 0-2.543-10.184 407.66 407.66 0 0 0-2.8047-10.117 407.66 407.66 0 0 0-3.0644-10.041 407.66 407.66 0 0 0-3.3203-9.957 407.66 407.66 0 0 0-3.5762-9.8691 407.66 407.66 0 0 0-3.8301-9.7734 407.66 407.66 0 0 0-4.0781-9.6719 407.66 407.66 0 0 0-4.3281-9.5645 407.66 407.66 0 0 0-4.5703-9.4512 407.66 407.66 0 0 0-4.8145-9.3281 407.66 407.66 0 0 0-5.0527-9.2031 407.66 407.66 0 0 0-5.2891-9.0644 407.66 407.66 0 0 0-5.5195-8.9297 407.66 407.66 0 0 0-5.7441-8.7852 407.66 407.66 0 0 0-5.9726-8.6328 407.66 407.66 0 0 0-6.1934-8.4785 407.66 407.66 0 0 0-6.4062-8.3125 407.66 407.66 0 0 0-6.6211-8.1465 407.66 407.66 0 0 0-6.8281-7.9766 407.66 407.66 0 0 0-7.0312-7.793 407.66 407.66 0 0 0-7.2285-7.6113 407.66 407.66 0 0 0-7.4238-7.4238 407.66 407.66 0 0 0-7.6094-7.2285 407.66 407.66 0 0 0-7.7949-7.0312 407.66 407.66 0 0 0-2.6035-2.2305 494.1 494.1 0 0 1-6.1152 4 494.1 494.1 0 0 1-10.822 6.6894 494.1 494.1 0 0 1-10.992 6.4102 494.1 494.1 0 0 1-11.152 6.123 494.1 494.1 0 0 1-11.307 5.834 494.1 494.1 0 0 1-11.453 5.543 494.1 494.1 0 0 1-11.592 5.2441 494.1 494.1 0 0 1-11.723 4.9434 494.1 494.1 0 0 1-11.846 4.6426 494.1 494.1 0 0 1-11.963 4.334 494.1 494.1 0 0 1-12.07 4.0254 494.1 494.1 0 0 1-12.168 3.7129 494.1 494.1 0 0 1-12.262 3.3984 494.1 494.1 0 0 1-12.344 3.0801 494.1 494.1 0 0 1-12.42 2.7637 494.1 494.1 0 0 1-12.486 2.4414 494.1 494.1 0 0 1-12.545 2.1191 494.1 494.1 0 0 1-12.596 1.7969 494.1 494.1 0 0 1-12.639 1.4707 494.1 494.1 0 0 1-12.672 1.1465 494.1 494.1 0 0 1-12.695 0.81836 494.1 494.1 0 0 1-12.715 0.49023 494.1 494.1 0 0 1-12.721 0.16407 494.1 494.1 0 0 1-36.924-1.3809 494.1 494.1 0 0 1-36.719-4.1387 494.1 494.1 0 0 1-19.955-3.7754v232.44z"/>
  <path transform="scale(.26458)" d="m639.55 196.91a494.1 494.1 0 0 1-0.0606 4.8144 494.1 494.1 0 0 1-0.49218 12.713 494.1 494.1 0 0 1-0.81836 12.697 494.1 494.1 0 0 1-1.1445 12.672 494.1 494.1 0 0 1-1.4707 12.639 494.1 494.1 0 0 1-1.7969 12.596 494.1 494.1 0 0 1-2.1191 12.545 494.1 494.1 0 0 1-2.4434 12.486 494.1 494.1 0 0 1-2.7617 12.42 494.1 494.1 0 0 1-3.082 12.344 494.1 494.1 0 0 1-3.3984 12.26 494.1 494.1 0 0 1-3.7129 12.17 494.1 494.1 0 0 1-4.0234 12.07 494.1 494.1 0 0 1-4.3359 11.961 494.1 494.1 0 0 1-4.6406 11.848 494.1 494.1 0 0 1-4.9434 11.723 494.1 494.1 0 0 1-5.2461 11.592 494.1 494.1 0 0 1-5.541 11.453 494.1 494.1 0 0 1-5.834 11.307 494.1 494.1 0 0 1-6.123 11.152 494.1 494.1 0 0 1-6.4102 10.99 494.1 494.1 0 0 1-6.6894 10.822 494.1 494.1 0 0 1-6.9648 10.648 494.1 494.1 0 0 1-7.2383 10.463 494.1 494.1 0 0 1-7.5059 10.273 494.1 494.1 0 0 1-7.7656 10.078 494.1 494.1 0 0 1-8.0254 9.873 494.1 494.1 0 0 1-8.2754 9.6641 494.1 494.1 0 0 1-8.5215 9.4492 494.1 494.1 0 0 1-8.7617 9.2246 494.1 494.1 0 0 1-8.9961 8.9961 494.1 494.1 0 0 1-7.5273 7.1504 494.1 494.1 0 0 1 7.5273 7.1504 494.1 494.1 0 0 1 8.9961 8.998 494.1 494.1 0 0 1 8.7617 9.2246 494.1 494.1 0 0 1 8.5215 9.4473 494.1 494.1 0 0 1 8.2754 9.6641 494.1 494.1 0 0 1 8.0254 9.875 494.1 494.1 0 0 1 7.7656 10.076 494.1 494.1 0 0 1 7.5059 10.275 494.1 494.1 0 0 1 7.2383 10.463 494.1 494.1 0 0 1 6.9648 10.646 494.1 494.1 0 0 1 6.6894 10.822 494.1 494.1 0 0 1 6.4102 10.992 494.1 494.1 0 0 1 6.123 11.152 494.1 494.1 0 0 1 5.834 11.307 494.1 494.1 0 0 1 5.541 11.453 494.1 494.1 0 0 1 5.2461 11.592 494.1 494.1 0 0 1 4.9434 11.723 494.1 494.1 0 0 1 4.6406 11.846 494.1 494.1 0 0 1 4.3359 11.963 494.1 494.1 0 0 1 4.0234 12.068 494.1 494.1 0 0 1 3.7129 12.17 494.1 494.1 0 0 1 3.3984 12.262 494.1 494.1 0 0 1 3.082 12.344 494.1 494.1 0 0 1 2.7617 12.42 494.1 494.1 0 0 1 2.4434 12.486 494.1 494.1 0 0 1 2.1191 12.545 494.1 494.1 0 0 1 1.7969 12.596 494.1 494.1 0 0 1 1.4707 12.639 494.1 494.1 0 0 1 1.1445 12.67 494.1 494.1 0 0 1 0.81836 12.697 494.1 494.1 0 0 1 0.49218 12.713 494.1 494.1 0 0 1 0.10157 7.9629h121.7v-709.34z"/>
 </g>
</svg>
